<?xml version="1.0" encoding="UTF-8"?><svg id="a" xmlns="http://www.w3.org/2000/svg" viewBox="0 0 253.5 74.86"><defs><style>.b{fill:#fbcd18;}.b,.c{stroke-width:0px;}.c,.d{fill:gray;}.e{fill:#6b6b6b;stroke:gray;stroke-miterlimit:10;}.d{font-family:Consolas, Consolas;font-size:20px;}</style></defs><line class="e" x1=".5" y1="2.01" x2=".5" y2="68.51"/><line class="e" x1="20.94" y1="68.51" x2="20.94" y2="2.01"/><line class="e" x1="43.5" y1="2.01" x2="43.5" y2="68.51"/><line class="e" x1="63.17" y1="2.01" x2="63.17" y2="68.51"/><path class="b" d="m49.47,17.7c4.48-.38,7.2,1.27,6.65,5.93-.79,6.6-.81,13.63-3.29,19.61-4.78,11.51-20.55,15.81-32.54,9.97-10.57-5.15-14.86-19.11-9.3-30.25,3.6-7.21,12.43-10.12,21.11-6.97,6.68,2.43,9.62,8.56,7.7,16.06-1.69,6.59-10.77,9.57-15.47,4.66-1.54-1.6-2.83-4.71-1.48-7.56.23-.47,2.98-1.93,3.43-1.56,1.27,1.04.22,4.41,3.5,5.37,1.72.04,3.14-1.05,3.52-2.25.95-2.96,1.36-6.69-2.53-7.97-4.46-1.46-9.23-2.2-12.81,2.3l-1.3,2.44c-2.15,6.53-1.62,12.63,3.84,17.49,5.1,4.54,14.11,5.08,20.46,1.52.74-.42,4.31-3.38,5.55-6.49,2-5,1.75-9.09,2-11l.97-11.31Z"/><text class="d" transform="translate(80.72 16.64) scale(1.06 1)"><tspan x="0" y="0">ЕВРОПЕИСКИИ</tspan></text><text class="d" transform="translate(80.81 68.81) scale(1.01 1)"><tspan x="0" y="0">В</tspan></text><text class="d" transform="translate(94.57 68.81) scale(1.01 1)"><tspan x="0" y="0">САНКТ</tspan></text><text class="d" transform="translate(155.57 68.81) scale(.89 1)"><tspan x="0" y="0">ПЕТЕРБУРГЕ</tspan></text><text class="d" transform="translate(81.81 42.81) scale(.97 1)"><tspan x="0" y="0">УНИВЕРСИТЕТ</tspan></text><polygon class="c" points="205.34 .01 202.94 3.38 204.67 3.38 207.19 .01 205.34 .01"/><polygon class="c" points="158.33 0 155.93 3.36 157.66 3.36 160.18 0 158.33 0"/><polygon class="c" points="152.33 61 149.93 64.36 151.66 64.36 154.18 61 152.33 61"/></svg>